<svg width="400" height="300" viewBox="0 0 400 300" fill="none" xmlns="http://www.w3.org/2000/svg">
<g clip-path="url(#clip0_8630_33701)">
<rect width="400" height="300" fill="#EBF9F0"/>
<mask id="mask0_8630_33701" style="mask-type:luminance" maskUnits="userSpaceOnUse" x="-108" y="-155" width="501" height="334">
<path d="M392.775 -154.317H-108V178.949H392.775V-154.317Z" fill="white"/>
</mask>
<g mask="url(#mask0_8630_33701)">
<path d="M36.6367 1.09336C38.2003 1.09336 39.4678 -0.17193 39.4678 -1.73274C39.4678 -3.29355 38.2003 -4.55884 36.6367 -4.55884C35.0732 -4.55884 33.8057 -3.29355 33.8057 -1.73274C33.8057 -0.17193 35.0732 1.09336 36.6367 1.09336Z" fill="#484948"/>
<path d="M265.752 2.15937C265.752 2.41672 265.675 2.66827 265.532 2.88216C265.389 3.09604 265.185 3.26262 264.947 3.3608C264.708 3.45897 264.446 3.48432 264.194 3.43363C263.941 3.38294 263.709 3.25848 263.527 3.07605C263.345 2.89361 263.222 2.66139 263.172 2.40883C263.123 2.15627 263.149 1.89472 263.249 1.65735C263.349 1.41997 263.517 1.21745 263.731 1.07543C263.946 0.933421 264.199 0.858317 264.457 0.859636C264.627 0.859634 264.796 0.893297 264.954 0.958697C265.111 1.0241 265.255 1.11994 265.375 1.24072C265.495 1.3615 265.591 1.50484 265.655 1.66249C265.72 1.82015 265.753 1.989 265.752 2.15937Z" fill="#39D7BD"/>
<path d="M317.898 2.71218C319.668 2.71218 321.103 1.27977 321.103 -0.487179C321.103 -2.25413 319.668 -3.68652 317.898 -3.68652C316.128 -3.68652 314.693 -2.25413 314.693 -0.487179C314.693 1.27977 316.128 2.71218 317.898 2.71218Z" fill="#39D7BD"/>
<path d="M28.8324 12.9037C29.4592 12.9037 29.9675 12.3964 29.9675 11.7706C29.9675 11.1448 29.4592 10.6375 28.8324 10.6375C28.2055 10.6375 27.6973 11.1448 27.6973 11.7706C27.6973 12.3964 28.2055 12.9037 28.8324 12.9037Z" fill="#39D7BD"/>
<path d="M15.6647 8.36425C15.9892 8.36425 16.2523 8.10165 16.2523 7.77771C16.2523 7.45377 15.9892 7.19116 15.6647 7.19116C15.3402 7.19116 15.0771 7.45377 15.0771 7.77771C15.0771 8.10165 15.3402 8.36425 15.6647 8.36425Z" fill="#39D7BD"/>
<path d="M70.3294 5.33168C70.3294 5.50041 70.2793 5.66536 70.1854 5.80566C70.0915 5.94596 69.958 6.05531 69.8018 6.11989C69.6457 6.18446 69.4738 6.20136 69.308 6.16844C69.1423 6.13552 68.99 6.05426 68.8704 5.93495C68.7509 5.81563 68.6695 5.66361 68.6365 5.49812C68.6036 5.33262 68.6205 5.16108 68.6852 5.00518C68.7499 4.84929 68.8594 4.71604 69 4.6223C69.1405 4.52855 69.3057 4.47852 69.4748 4.47852C69.7014 4.47852 69.9188 4.5684 70.0791 4.72839C70.2394 4.88839 70.3294 5.1054 70.3294 5.33168Z" fill="#39D7BD"/>
<path d="M297.115 63.1075C297.116 63.9647 296.863 64.803 296.386 65.5163C295.91 66.2297 295.233 66.786 294.44 67.115C293.647 67.4439 292.774 67.5306 291.932 67.3642C291.09 67.1978 290.316 66.7857 289.708 66.1801C289.1 65.5744 288.686 64.8025 288.518 63.9619C288.35 63.1213 288.436 62.2498 288.764 61.4578C289.093 60.6658 289.649 59.9887 290.363 59.5124C291.077 59.036 291.916 58.7817 292.775 58.7817C293.925 58.7817 295.027 59.2373 295.841 60.0483C296.655 60.8594 297.113 61.9597 297.115 63.1075Z" fill="#39D7BD"/>
<path d="M154.993 111.65C155.757 111.65 156.376 111.032 156.376 110.27C156.376 109.508 155.757 108.89 154.993 108.89C154.23 108.89 153.611 109.508 153.611 110.27C153.611 111.032 154.23 111.65 154.993 111.65Z" fill="#39D7BD"/>
<path d="M104.128 94.3008C104.128 94.6475 104.025 94.9865 103.832 95.2747C103.639 95.563 103.365 95.7877 103.044 95.9204C102.723 96.0531 102.37 96.0878 102.03 96.0201C101.689 95.9525 101.376 95.7855 101.131 95.5404C100.885 95.2952 100.718 94.9829 100.65 94.6428C100.582 94.3028 100.617 93.9503 100.75 93.63C100.883 93.3097 101.108 93.0359 101.397 92.8433C101.685 92.6507 102.025 92.5479 102.372 92.5479C102.838 92.5479 103.285 92.7326 103.614 93.0613C103.943 93.39 104.128 93.8359 104.128 94.3008Z" fill="#39D7BD"/>
<path d="M20.6855 50.7569C22.3523 50.7569 23.7035 49.4081 23.7035 47.7442C23.7035 46.0803 22.3523 44.7314 20.6855 44.7314C19.0187 44.7314 17.6675 46.0803 17.6675 47.7442C17.6675 49.4081 19.0187 50.7569 20.6855 50.7569Z" fill="#39D7BD"/>
<path d="M89.8065 113.263C89.8065 113.863 89.6284 114.449 89.2945 114.948C88.9607 115.447 88.4863 115.835 87.9311 116.065C87.376 116.294 86.7651 116.354 86.1758 116.237C85.5865 116.12 85.0452 115.832 84.6203 115.407C84.1954 114.983 83.9061 114.443 83.7888 113.855C83.6716 113.266 83.7318 112.657 83.9617 112.102C84.1917 111.548 84.5811 111.075 85.0807 110.741C85.5803 110.408 86.1677 110.23 86.7685 110.23C87.5743 110.23 88.347 110.55 88.9167 111.118C89.4865 111.687 89.8065 112.459 89.8065 113.263Z" fill="#39D7BD"/>
<path d="M173.041 148.056C173.627 148.056 174.102 147.582 174.102 146.997C174.102 146.411 173.627 145.937 173.041 145.937C172.454 145.937 171.979 146.411 171.979 146.997C171.979 147.582 172.454 148.056 173.041 148.056Z" fill="#39D7BD"/>
<path d="M13.9295 55.762C13.9308 55.8744 13.8987 55.9846 13.8371 56.0786C13.7755 56.1726 13.6874 56.2463 13.5838 56.2902C13.4802 56.3341 13.3659 56.3463 13.2554 56.3252C13.1448 56.3041 13.0431 56.2506 12.963 56.1717C12.883 56.0927 12.8283 55.9918 12.8058 55.8817C12.7834 55.7716 12.7942 55.6574 12.837 55.5535C12.8797 55.4495 12.9525 55.3607 13.0459 55.2981C13.1394 55.2356 13.2494 55.2022 13.3619 55.2021C13.5113 55.2021 13.6547 55.2609 13.7609 55.3657C13.8672 55.4705 13.9277 55.6129 13.9295 55.762Z" fill="#39D7BD"/>
<path d="M164.675 121.648C165.479 121.648 166.131 120.997 166.131 120.195C166.131 119.392 165.479 118.742 164.675 118.742C163.871 118.742 163.22 119.392 163.22 120.195C163.22 120.997 163.871 121.648 164.675 121.648Z" fill="#39D7BD"/>
<path d="M238.536 116.69C238.927 116.69 239.244 116.374 239.244 115.983C239.244 115.593 238.927 115.277 238.536 115.277C238.145 115.277 237.829 115.593 237.829 115.983C237.829 116.374 238.145 116.69 238.536 116.69Z" fill="#39D7BD"/>
<path d="M284.094 95.5461C284.094 96.2935 283.872 97.0242 283.456 97.6457C283.04 98.2672 282.448 98.7516 281.757 99.0376C281.065 99.3237 280.304 99.3985 279.569 99.2527C278.835 99.1069 278.16 98.7469 277.631 98.2184C277.101 97.6899 276.741 97.0165 276.595 96.2834C276.449 95.5503 276.524 94.7904 276.81 94.0998C277.097 93.4093 277.582 92.819 278.205 92.4038C278.827 91.9885 279.559 91.7668 280.308 91.7668C281.312 91.7668 282.275 92.165 282.985 92.8738C283.695 93.5825 284.094 94.5438 284.094 95.5461Z" fill="#39D7BD"/>
<path d="M304.579 53.5815C306.083 53.5815 307.303 52.3639 307.303 50.862C307.303 49.3601 306.083 48.1426 304.579 48.1426C303.074 48.1426 301.854 49.3601 301.854 50.862C301.854 52.3639 303.074 53.5815 304.579 53.5815Z" fill="#39D7BD"/>
<path d="M290.544 0.0661731C292.24 0.0661731 293.615 -1.30654 293.615 -2.99987C293.615 -4.6932 292.24 -6.06592 290.544 -6.06592C288.847 -6.06592 287.472 -4.6932 287.472 -2.99987C287.472 -1.30654 288.847 0.0661731 290.544 0.0661731Z" fill="#39D7BD"/>
<path d="M264.611 64.0873C264.611 64.4264 264.51 64.7578 264.321 65.0396C264.133 65.3215 263.864 65.541 263.55 65.6705C263.236 65.7999 262.891 65.8335 262.558 65.7668C262.225 65.7002 261.919 65.5364 261.679 65.2962C261.44 65.0559 261.277 64.7501 261.211 64.4173C261.146 64.0846 261.181 63.74 261.312 63.4271C261.443 63.1142 261.664 62.8471 261.947 62.6597C262.23 62.4723 262.562 62.373 262.902 62.3743C263.127 62.3743 263.35 62.4186 263.558 62.5048C263.765 62.591 263.954 62.7172 264.113 62.8764C264.272 63.0355 264.397 63.2244 264.483 63.4322C264.568 63.64 264.612 63.8626 264.611 64.0873Z" fill="#39D7BD"/>
<path d="M195.557 16.1967C198.378 16.1967 200.665 13.9138 200.665 11.0977C200.665 8.28166 198.378 5.99878 195.557 5.99878C192.736 5.99878 190.449 8.28166 190.449 11.0977C190.449 13.9138 192.736 16.1967 195.557 16.1967Z" fill="#39D7BD"/>
<path d="M54.6049 17.0161C56.1242 17.0161 57.3559 15.7867 57.3559 14.27C57.3559 12.7534 56.1242 11.5239 54.6049 11.5239C53.0856 11.5239 51.854 12.7534 51.854 14.27C51.854 15.7867 53.0856 17.0161 54.6049 17.0161Z" fill="#39D7BD"/>
<path d="M300.959 58.5282C301.288 58.5282 301.554 58.2626 301.554 57.935C301.554 57.6074 301.288 57.3418 300.959 57.3418C300.631 57.3418 300.365 57.6074 300.365 57.935C300.365 58.2626 300.631 58.5282 300.959 58.5282Z" fill="#39D7BD"/>
<path d="M41.3046 12.8979C41.3046 13.362 41.1668 13.8156 40.9085 14.2014C40.6503 14.5872 40.2832 14.888 39.8537 15.0655C39.4243 15.2431 38.9517 15.2896 38.4958 15.1991C38.0399 15.1085 37.6211 14.8851 37.2924 14.5569C36.9637 14.2288 36.7399 13.8108 36.6492 13.3557C36.5585 12.9005 36.605 12.4288 36.7829 12.0001C36.9608 11.5714 37.262 11.205 37.6486 10.9472C38.0351 10.6894 38.4895 10.5518 38.9543 10.5518C39.5771 10.5535 40.1739 10.8013 40.6143 11.2409C41.0547 11.6805 41.3029 12.2762 41.3046 12.8979Z" fill="#39D7BD"/>
<path d="M243.05 30.3192C244.002 30.3192 244.773 29.5493 244.773 28.5995C244.773 27.6498 244.002 26.8799 243.05 26.8799C242.099 26.8799 241.328 27.6498 241.328 28.5995C241.328 29.5493 242.099 30.3192 243.05 30.3192Z" fill="#29B4C9"/>
<path d="M241.074 109.631C241.075 109.793 241.028 109.953 240.939 110.088C240.849 110.224 240.721 110.33 240.571 110.393C240.421 110.456 240.256 110.473 240.096 110.443C239.937 110.412 239.79 110.334 239.674 110.22C239.559 110.105 239.48 109.959 239.447 109.8C239.415 109.641 239.431 109.476 239.493 109.326C239.555 109.175 239.66 109.047 239.795 108.957C239.931 108.866 240.09 108.818 240.252 108.818C240.36 108.817 240.467 108.837 240.566 108.878C240.666 108.918 240.756 108.978 240.833 109.054C240.909 109.129 240.97 109.219 241.011 109.318C241.052 109.417 241.074 109.524 241.074 109.631Z" fill="#29B4C9"/>
<path d="M169.623 -0.227623C169.623 -0.0364729 169.567 0.150392 169.46 0.309327C169.354 0.468262 169.203 0.592133 169.026 0.665283C168.849 0.738433 168.654 0.757577 168.466 0.720285C168.279 0.682994 168.106 0.590945 167.971 0.455782C167.835 0.320618 167.743 0.148404 167.706 -0.0390725C167.668 -0.22655 167.687 -0.420872 167.761 -0.597472C167.834 -0.774071 167.958 -0.925015 168.117 -1.03121C168.277 -1.13741 168.464 -1.19409 168.655 -1.19409C168.912 -1.19409 169.158 -1.09227 169.34 -0.911017C169.521 -0.729769 169.623 -0.483947 169.623 -0.227623Z" fill="#29B4C9"/>
<path d="M69.2869 169.544C69.2869 170.203 69.0911 170.848 68.7242 171.396C68.3574 171.944 67.836 172.371 67.226 172.623C66.6159 172.876 65.9447 172.942 65.2971 172.813C64.6495 172.684 64.0546 172.367 63.5877 171.901C63.1208 171.435 62.8028 170.841 62.674 170.194C62.5452 169.548 62.6113 168.878 62.864 168.269C63.1167 167.66 63.5446 167.14 64.0936 166.773C64.6426 166.407 65.2881 166.212 65.9484 166.212C66.8338 166.212 67.683 166.563 68.3091 167.188C68.9351 167.813 69.2869 168.66 69.2869 169.544Z" fill="#29B4C9"/>
<path d="M58.4047 11.904C58.4047 12.7345 58.158 13.5464 57.6958 14.2369C57.2336 14.9275 56.5766 15.4657 55.808 15.7835C55.0393 16.1013 54.1935 16.1845 53.3776 16.0224C52.5616 15.8604 51.812 15.4605 51.2238 14.8732C50.6355 14.286 50.2348 13.5378 50.0725 12.7232C49.9102 11.9086 49.9935 11.0643 50.3119 10.297C50.6303 9.52975 51.1694 8.87392 51.8612 8.41252C52.553 7.95111 53.3662 7.70483 54.1982 7.70483C55.3138 7.70483 56.3838 8.14725 57.1727 8.93474C57.9615 9.72223 58.4047 10.7903 58.4047 11.904Z" fill="#29B4C9"/>
<path d="M26.2079 46.8167C26.2079 47.2504 26.0791 47.6744 25.8377 48.035C25.5963 48.3956 25.2532 48.6767 24.8518 48.8426C24.4504 49.0086 24.0087 49.052 23.5826 48.9674C23.1565 48.8828 22.7651 48.674 22.4579 48.3673C22.1506 48.0606 21.9414 47.6699 21.8567 47.2445C21.7719 46.8191 21.8154 46.3782 21.9817 45.9775C22.1479 45.5768 22.4295 45.2343 22.7907 44.9934C23.152 44.7524 23.5767 44.6238 24.0112 44.6238C24.5938 44.6238 25.1525 44.8548 25.5645 45.2661C25.9765 45.6773 26.2079 46.2351 26.2079 46.8167Z" fill="#29B4C9"/>
<path d="M71.4983 127.774C73.8952 127.774 75.8383 125.835 75.8383 123.442C75.8383 121.049 73.8952 119.109 71.4983 119.109C69.1013 119.109 67.1582 121.049 67.1582 123.442C67.1582 125.835 69.1013 127.774 71.4983 127.774Z" fill="#29B4C9"/>
<path d="M175.111 122.401C175.653 122.401 176.092 121.962 176.092 121.421C176.092 120.88 175.653 120.441 175.111 120.441C174.569 120.441 174.129 120.88 174.129 121.421C174.129 121.962 174.569 122.401 175.111 122.401Z" fill="#29B4C9"/>
<path d="M122.704 10.7638C123.228 10.7638 123.652 10.34 123.652 9.81731C123.652 9.29459 123.228 8.87085 122.704 8.87085C122.18 8.87085 121.756 9.29459 121.756 9.81731C121.756 10.34 122.18 10.7638 122.704 10.7638Z" fill="#29B4C9"/>
<path d="M84.1102 33.2388C84.1102 33.861 83.9254 34.4693 83.5791 34.9866C83.2328 35.504 82.7406 35.9072 82.1647 36.1453C81.5889 36.3835 80.9552 36.4458 80.3438 36.3244C79.7325 36.203 79.1709 35.9034 78.7302 35.4634C78.2894 35.0234 77.9893 34.4628 77.8677 33.8526C77.7461 33.2423 77.8085 32.6097 78.047 32.0349C78.2856 31.46 78.6895 30.9687 79.2078 30.623C79.726 30.2773 80.3354 30.0928 80.9587 30.0928C81.7945 30.0928 82.5961 30.4242 83.1872 31.0142C83.7782 31.6042 84.1102 32.4044 84.1102 33.2388Z" fill="#29B4C9"/>
<path d="M169.096 24.2208C169.097 25.1046 168.836 25.969 168.345 26.7044C167.854 27.4398 167.155 28.0132 166.338 28.352C165.52 28.6909 164.62 28.7799 163.751 28.6078C162.883 28.4357 162.085 28.0102 161.459 27.3852C160.833 26.7603 160.407 25.964 160.235 25.0971C160.062 24.2302 160.151 23.3317 160.491 22.5154C160.83 21.6991 161.405 21.0017 162.141 20.5116C162.878 20.0214 163.744 19.7604 164.629 19.7617C165.216 19.7608 165.797 19.8756 166.34 20.0994C166.882 20.3231 167.375 20.6516 167.79 21.0658C168.205 21.48 168.534 21.9719 168.758 22.5133C168.982 23.0547 169.097 23.635 169.096 24.2208Z" fill="#29B4C9"/>
<path d="M270.118 43.0434C270.119 43.538 269.974 44.0219 269.699 44.4338C269.425 44.8457 269.034 45.1672 268.577 45.3574C268.12 45.5476 267.616 45.598 267.13 45.5023C266.644 45.4066 266.197 45.1691 265.846 44.8198C265.495 44.4705 265.256 44.0252 265.159 43.5401C265.062 43.0551 265.111 42.5522 265.3 42.0951C265.49 41.638 265.811 41.2472 266.222 40.9723C266.634 40.6973 267.119 40.5505 267.614 40.5505C267.943 40.5497 268.268 40.6135 268.572 40.7384C268.876 40.8633 269.152 41.0468 269.384 41.2783C269.617 41.5099 269.801 41.785 269.927 42.0879C270.053 42.3908 270.118 42.7155 270.118 43.0434Z" fill="#29B4C9"/>
<path d="M76.3987 91.9413C78.8621 91.9413 80.859 89.9478 80.859 87.4888C80.859 85.0298 78.8621 83.0364 76.3987 83.0364C73.9354 83.0364 71.9385 85.0298 71.9385 87.4888C71.9385 89.9478 73.9354 91.9413 76.3987 91.9413Z" fill="#29B4C9"/>
<path d="M118.137 175.617C118.137 176.463 117.885 177.291 117.414 177.995C116.943 178.699 116.273 179.247 115.489 179.571C114.705 179.895 113.843 179.979 113.011 179.813C112.18 179.648 111.416 179.239 110.817 178.64C110.217 178.041 109.81 177.278 109.645 176.448C109.48 175.617 109.566 174.756 109.892 173.975C110.217 173.193 110.768 172.525 111.473 172.056C112.179 171.586 113.009 171.336 113.857 171.338C114.419 171.338 114.977 171.448 115.496 171.664C116.016 171.879 116.488 172.194 116.886 172.591C117.283 172.989 117.598 173.461 117.813 173.98C118.028 174.499 118.138 175.055 118.137 175.617Z" fill="#29B4C9"/>
<path d="M110.564 64.8524C112.423 64.8524 113.929 63.3484 113.929 61.4931C113.929 59.6378 112.423 58.1338 110.564 58.1338C108.705 58.1338 107.199 59.6378 107.199 61.4931C107.199 63.3484 108.705 64.8524 110.564 64.8524Z" fill="#29B4C9"/>
<path d="M243.425 156.188C243.425 156.538 243.321 156.879 243.126 157.17C242.932 157.46 242.656 157.687 242.332 157.82C242.009 157.954 241.653 157.989 241.31 157.921C240.967 157.853 240.651 157.684 240.404 157.437C240.157 157.19 239.988 156.876 239.92 156.533C239.851 156.19 239.887 155.835 240.02 155.512C240.154 155.19 240.381 154.914 240.672 154.72C240.963 154.526 241.305 154.422 241.655 154.422C242.124 154.422 242.574 154.608 242.906 154.939C243.238 155.271 243.425 155.72 243.425 156.188Z" fill="#29B4C9"/>
<path d="M278.499 94.7468C280.298 94.7468 281.757 93.2905 281.757 91.4941C281.757 89.6977 280.298 88.2415 278.499 88.2415C276.699 88.2415 275.24 89.6977 275.24 91.4941C275.24 93.2905 276.699 94.7468 278.499 94.7468Z" fill="#29B4C9"/>
<path d="M256.731 22.0353C256.732 22.5434 256.582 23.0405 256.3 23.4635C256.018 23.8865 255.617 24.2165 255.147 24.4115C254.677 24.6066 254.159 24.6579 253.66 24.5591C253.161 24.4603 252.702 24.2158 252.342 23.8565C251.982 23.4972 251.737 23.0394 251.638 22.541C251.539 22.0426 251.591 21.5261 251.786 21.0569C251.982 20.5877 252.312 20.187 252.736 19.9055C253.16 19.6241 253.658 19.4745 254.167 19.4758C254.503 19.4758 254.837 19.542 255.148 19.6707C255.459 19.7993 255.742 19.9878 255.98 20.2255C256.218 20.4632 256.407 20.7453 256.535 21.0559C256.664 21.3664 256.731 21.6992 256.731 22.0353Z" fill="#29B4C9"/>
<path d="M215.554 41.2381C215.554 41.685 215.422 42.1218 215.173 42.4934C214.924 42.865 214.571 43.1546 214.157 43.3256C213.743 43.4966 213.288 43.5414 212.849 43.4542C212.41 43.367 212.007 43.1518 211.69 42.8358C211.374 42.5198 211.158 42.1172 211.071 41.6789C210.984 41.2406 211.028 40.7863 211.2 40.3734C211.371 39.9605 211.661 39.6076 212.033 39.3593C212.406 39.111 212.843 38.9785 213.291 38.9785C213.891 38.9785 214.467 39.2166 214.891 39.6403C215.316 40.0641 215.554 40.6388 215.554 41.2381Z" fill="#29B4C9"/>
<path d="M315.216 13.91C315.216 14.0906 315.163 14.2671 315.062 14.4173C314.962 14.5675 314.819 14.6845 314.652 14.7536C314.484 14.8227 314.3 14.8408 314.123 14.8056C313.946 14.7703 313.783 14.6834 313.655 14.5557C313.527 14.428 313.44 14.2653 313.404 14.0881C313.369 13.911 313.387 13.7274 313.456 13.5605C313.526 13.3937 313.643 13.2511 313.793 13.1507C313.944 13.0504 314.121 12.9968 314.301 12.9968C314.544 12.9968 314.777 13.093 314.948 13.2643C315.12 13.4355 315.216 13.6678 315.216 13.91Z" fill="#DE6D73"/>
<path d="M337.783 68.6189C339.339 68.6189 340.601 67.3596 340.601 65.8062C340.601 64.2527 339.339 62.9934 337.783 62.9934C336.227 62.9934 334.965 64.2527 334.965 65.8062C334.965 67.3596 336.227 68.6189 337.783 68.6189Z" fill="#DE6D73"/>
<path d="M252.618 99.4996C252.618 99.8951 252.501 100.282 252.28 100.611C252.06 100.939 251.747 101.196 251.381 101.347C251.015 101.498 250.613 101.538 250.224 101.461C249.836 101.384 249.479 101.193 249.199 100.914C248.918 100.634 248.728 100.278 248.65 99.8897C248.573 99.5018 248.613 99.0998 248.764 98.7344C248.916 98.369 249.173 98.0567 249.502 97.837C249.831 97.6173 250.219 97.5 250.615 97.5C251.146 97.5 251.656 97.7107 252.031 98.0857C252.407 98.4607 252.618 98.9693 252.618 99.4996Z" fill="#DE6D73"/>
<path d="M236.922 72.8785C236.923 73.5299 236.731 74.1671 236.37 74.7098C236.009 75.2525 235.496 75.6764 234.894 75.9281C234.292 76.1798 233.629 76.248 232.988 76.1242C232.347 76.0003 231.758 75.6899 231.294 75.232C230.83 74.7742 230.511 74.1895 230.38 73.5515C230.248 72.9135 230.308 72.2509 230.553 71.647C230.798 71.0432 231.216 70.5253 231.756 70.1585C232.295 69.7917 232.931 69.5924 233.583 69.5859C234.02 69.5815 234.452 69.6633 234.857 69.8267C235.261 69.9902 235.629 70.2319 235.94 70.538C236.25 70.8441 236.497 71.2085 236.665 71.6102C236.834 72.0119 236.921 72.443 236.922 72.8785Z" fill="#DE6D73"/>
<path d="M238.31 56.8014C239.482 56.8014 240.433 55.8524 240.433 54.6818C240.433 53.5112 239.482 52.5623 238.31 52.5623C237.137 52.5623 236.187 53.5112 236.187 54.6818C236.187 55.8524 237.137 56.8014 238.31 56.8014Z" fill="#DE6D73"/>
<path d="M233.196 66.3068C233.196 67.1056 232.958 67.8866 232.514 68.5508C232.069 69.2151 231.437 69.7328 230.698 70.0385C229.958 70.3442 229.145 70.4242 228.36 70.2683C227.575 70.1125 226.854 69.7278 226.288 69.1629C225.722 68.598 225.337 67.8783 225.181 67.0948C225.025 66.3112 225.105 65.4991 225.411 64.761C225.717 64.023 226.236 63.3921 226.901 62.9483C227.567 62.5045 228.349 62.2676 229.149 62.2676C230.222 62.2676 231.252 62.6931 232.01 63.4506C232.769 64.2081 233.196 65.2355 233.196 66.3068Z" fill="#DE6D73"/>
<path d="M239.259 61.8272C239.259 62.2227 239.141 62.6093 238.921 62.9382C238.701 63.267 238.388 63.5233 238.022 63.6746C237.656 63.826 237.253 63.8656 236.865 63.7884C236.476 63.7112 236.119 63.5208 235.839 63.2412C235.559 62.9615 235.368 62.6052 235.291 62.2173C235.214 61.8294 235.253 61.4274 235.405 61.062C235.557 60.6966 235.813 60.3843 236.143 60.1646C236.472 59.9449 236.859 59.8276 237.256 59.8276C237.787 59.8276 238.296 60.0383 238.672 60.4133C239.048 60.7883 239.259 61.2969 239.259 61.8272Z" fill="#DE6D73"/>
<path d="M201.218 45.124C202.295 45.124 203.168 44.2526 203.168 43.1777C203.168 42.1028 202.295 41.2314 201.218 41.2314C200.141 41.2314 199.269 42.1028 199.269 43.1777C199.269 44.2526 200.141 45.124 201.218 45.124Z" fill="#DE6D73"/>
<path d="M226.552 23.0746C226.552 23.1999 226.515 23.3223 226.445 23.4264C226.375 23.5305 226.276 23.6117 226.16 23.6596C226.044 23.7076 225.917 23.7201 225.794 23.6956C225.671 23.6712 225.558 23.6109 225.469 23.5223C225.38 23.4338 225.32 23.321 225.295 23.1982C225.271 23.0753 225.283 22.948 225.331 22.8323C225.38 22.7166 225.461 22.6177 225.565 22.5481C225.669 22.4785 225.792 22.4414 225.918 22.4414C226.086 22.4414 226.247 22.5081 226.366 22.6269C226.485 22.7456 226.552 22.9067 226.552 23.0746Z" fill="#DE6D73"/>
<path d="M266.386 11.0441C266.386 11.6825 266.196 12.3064 265.841 12.8371C265.486 13.3678 264.981 13.7812 264.39 14.0252C263.799 14.2692 263.149 14.3327 262.522 14.2077C261.895 14.0827 261.319 13.7747 260.867 13.3229C260.415 12.8711 260.108 12.2956 259.984 11.6694C259.86 11.0432 259.925 10.3943 260.171 9.80496C260.416 9.2156 260.832 8.71224 261.364 8.35856C261.896 8.00488 262.522 7.8168 263.161 7.81812C263.585 7.81812 264.005 7.90162 264.397 8.06382C264.789 8.22602 265.144 8.46376 265.444 8.76341C265.744 9.06306 265.981 9.41874 266.143 9.8101C266.304 10.2015 266.387 10.6208 266.386 11.0441Z" fill="#DE6D73"/>
<path d="M301.087 12.1378C301.093 12.9012 300.873 13.6493 300.453 14.2872C300.032 14.9251 299.432 15.4241 298.728 15.7208C298.023 16.0175 297.246 16.0986 296.495 15.9537C295.744 15.8088 295.053 15.4446 294.51 14.9071C293.967 14.3697 293.596 13.6833 293.445 12.9351C293.293 12.1869 293.368 11.4106 293.659 10.7046C293.95 9.99874 294.444 9.39508 295.08 8.97027C295.715 8.54545 296.463 8.31863 297.227 8.3186C298.245 8.31857 299.222 8.71988 299.945 9.43518C300.667 10.1505 301.078 11.1219 301.087 12.1378Z" fill="#DE6D73"/>
<path d="M252.898 52.6694C252.896 53.0303 252.788 53.3827 252.586 53.6822C252.384 53.9817 252.098 54.2147 251.764 54.3519C251.429 54.4891 251.062 54.5243 250.707 54.4531C250.353 54.3819 250.027 54.2074 249.772 53.9517C249.517 53.6961 249.343 53.3707 249.273 53.0166C249.203 52.6625 249.24 52.2956 249.379 51.9623C249.517 51.629 249.752 51.3441 250.053 51.1438C250.353 50.9434 250.707 50.8364 251.068 50.8364C251.309 50.8364 251.547 50.8839 251.77 50.9761C251.992 51.0683 252.194 51.2034 252.364 51.3737C252.534 51.544 252.669 51.7461 252.76 51.9684C252.852 52.1908 252.899 52.429 252.898 52.6694Z" fill="#DE6D73"/>
<path d="M179.625 64.9927C180.133 64.9927 180.546 64.5809 180.546 64.0729C180.546 63.5649 180.133 63.1531 179.625 63.1531C179.116 63.1531 178.703 63.5649 178.703 64.0729C178.703 64.5809 179.116 64.9927 179.625 64.9927Z" fill="#DE6D73"/>
<path d="M47.3737 80.9091C50.1689 80.9091 52.4348 78.6471 52.4348 75.8568C52.4348 73.0665 50.1689 70.8044 47.3737 70.8044C44.5785 70.8044 42.3125 73.0665 42.3125 75.8568C42.3125 78.6471 44.5785 80.9091 47.3737 80.9091Z" fill="#DE6D73"/>
<path d="M253.226 33.1129C253.226 33.3476 253.156 33.577 253.026 33.7721C252.895 33.9672 252.71 34.1193 252.492 34.2091C252.275 34.2988 252.036 34.3223 251.806 34.2766C251.575 34.2308 251.363 34.1178 251.197 33.9519C251.031 33.7859 250.918 33.5745 250.872 33.3444C250.826 33.1143 250.85 32.8757 250.94 32.6589C251.03 32.4421 251.182 32.2568 251.377 32.1264C251.573 31.9961 251.803 31.9265 252.038 31.9265C252.353 31.9265 252.655 32.0515 252.878 32.274C253.101 32.4965 253.226 32.7983 253.226 33.1129Z" fill="#DE6D73"/>
<path d="M23.8649 1.05279C23.8649 1.30721 23.7893 1.55593 23.6477 1.76748C23.5061 1.97902 23.3049 2.1439 23.0694 2.24127C22.8339 2.33863 22.5748 2.36411 22.3249 2.31447C22.0749 2.26484 21.8453 2.14232 21.665 1.96241C21.4848 1.78251 21.3621 1.55328 21.3124 1.30374C21.2626 1.0542 21.2882 0.795555 21.3857 0.560495C21.4832 0.325435 21.6484 0.124531 21.8603 -0.0168212C22.0722 -0.158173 22.3214 -0.233625 22.5763 -0.233625C22.7457 -0.234509 22.9137 -0.201839 23.0705 -0.137504C23.2272 -0.0731689 23.3696 0.0215569 23.4895 0.141187C23.6093 0.260817 23.7042 0.402975 23.7686 0.559448C23.8331 0.715921 23.8658 0.883606 23.8649 1.05279Z" fill="#DE6D73"/>
<path d="M0.521303 9.11116C0.521303 9.80853 0.314147 10.4902 -0.0739694 11.0701C-0.462085 11.6499 -1.01373 12.1018 -1.65915 12.3687C-2.30456 12.6356 -3.01475 12.7054 -3.69992 12.5694C-4.38508 12.4333 -5.01445 12.0975 -5.50843 11.6044C-6.00241 11.1113 -6.33881 10.483 -6.4751 9.79904C-6.61139 9.11508 -6.54144 8.40612 -6.2741 7.76184C-6.00676 7.11755 -5.55404 6.56687 -4.97318 6.17944C-4.39232 5.792 -3.70942 5.58521 -3.01083 5.58521C-2.07405 5.58521 -1.17564 5.95669 -0.513238 6.61793C0.149166 7.27918 0.521303 8.17602 0.521303 9.11116Z" fill="#DE6D73"/>
<path d="M224.655 116.629C224.657 116.751 224.622 116.87 224.555 116.972C224.488 117.073 224.393 117.153 224.281 117.201C224.169 117.248 224.045 117.261 223.925 117.238C223.806 117.215 223.696 117.157 223.609 117.072C223.522 116.986 223.463 116.877 223.439 116.758C223.415 116.639 223.427 116.515 223.473 116.403C223.519 116.29 223.598 116.194 223.699 116.127C223.8 116.059 223.919 116.023 224.041 116.023C224.203 116.023 224.358 116.086 224.473 116.2C224.588 116.314 224.654 116.468 224.655 116.629Z" fill="#F7D02D"/>
<path d="M334.738 51.3623C334.738 52.2508 334.474 53.1194 333.979 53.8582C333.485 54.5969 332.782 55.1727 331.96 55.5128C331.138 55.8528 330.233 55.9417 329.36 55.7684C328.487 55.5951 327.685 55.1672 327.055 54.5389C326.426 53.9106 325.997 53.1102 325.824 52.2387C325.65 51.3673 325.739 50.464 326.08 49.6431C326.42 48.8222 326.997 48.1206 327.737 47.627C328.477 47.1333 329.348 46.8699 330.238 46.8699C331.431 46.8699 332.576 47.3432 333.42 48.1857C334.264 49.0282 334.738 50.1708 334.738 51.3623Z" fill="#F7D02D"/>
<path d="M317.686 149.29C318.778 149.29 319.663 148.407 319.663 147.317C319.663 146.227 318.778 145.344 317.686 145.344C316.595 145.344 315.71 146.227 315.71 147.317C315.71 148.407 316.595 149.29 317.686 149.29Z" fill="#F7D02D"/>
<path d="M313.433 53.9225C313.434 54.225 313.346 54.521 313.178 54.773C313.011 55.0251 312.772 55.2217 312.492 55.3381C312.213 55.4544 311.905 55.4852 311.607 55.4265C311.31 55.3678 311.037 55.2223 310.823 55.0085C310.609 54.7946 310.463 54.522 310.404 54.2253C310.345 53.9286 310.376 53.6212 310.493 53.342C310.609 53.0628 310.806 52.8245 311.059 52.6573C311.311 52.4901 311.608 52.4015 311.911 52.4028C312.314 52.4028 312.702 52.5629 312.987 52.8479C313.273 53.1329 313.433 53.5195 313.433 53.9225Z" fill="#F7D02D"/>
<path d="M198.649 101.472C199.711 101.472 200.572 100.613 200.572 99.5527C200.572 98.4925 199.711 97.6331 198.649 97.6331C197.587 97.6331 196.726 98.4925 196.726 99.5527C196.726 100.613 197.587 101.472 198.649 101.472Z" fill="#F7D02D"/>
<path d="M223.36 73.5785C223.361 74.0863 223.211 74.5831 222.93 75.006C222.648 75.4289 222.247 75.7588 221.777 75.9541C221.308 76.1493 220.791 76.2011 220.292 76.1028C219.792 76.0046 219.334 75.7607 218.974 75.4021C218.613 75.0435 218.368 74.5862 218.268 74.0883C218.168 73.5903 218.219 73.074 218.413 72.6047C218.608 72.1354 218.937 71.7342 219.36 71.452C219.783 71.1697 220.28 71.019 220.789 71.019C221.47 71.019 222.122 71.2885 222.604 71.7683C223.086 72.2481 223.358 72.8991 223.36 73.5785Z" fill="#F7D02D"/>
<path d="M294.81 171.344C294.811 171.5 294.766 171.653 294.68 171.783C294.594 171.913 294.472 172.015 294.328 172.076C294.184 172.136 294.025 172.153 293.872 172.123C293.719 172.094 293.578 172.019 293.467 171.909C293.356 171.8 293.28 171.66 293.25 171.507C293.219 171.354 293.234 171.196 293.293 171.052C293.353 170.907 293.454 170.784 293.583 170.697C293.713 170.611 293.866 170.564 294.022 170.564C294.23 170.564 294.429 170.646 294.576 170.792C294.724 170.939 294.808 171.137 294.81 171.344Z" fill="#F7D02D"/>
<path d="M288 39.8173C289.04 39.8173 289.883 38.9758 289.883 37.9377C289.883 36.8996 289.04 36.0581 288 36.0581C286.96 36.0581 286.117 36.8996 286.117 37.9377C286.117 38.9758 286.96 39.8173 288 39.8173Z" fill="#F7D02D"/>
<path d="M282.558 40.5182C282.56 41.0221 282.411 41.515 282.132 41.9346C281.852 42.3542 281.454 42.6816 280.988 42.8753C280.522 43.0691 280.009 43.1204 279.514 43.0229C279.019 42.9255 278.564 42.6835 278.206 42.3277C277.849 41.9719 277.605 41.5182 277.507 41.0241C277.408 40.53 277.458 40.0177 277.651 39.5521C277.843 39.0865 278.17 38.6884 278.59 38.4083C279.01 38.1283 279.503 37.9788 280.008 37.9788C280.683 37.9788 281.331 38.2461 281.809 38.7222C282.287 39.1982 282.556 39.8441 282.558 40.5182Z" fill="#F7D02D"/>
<path d="M299.748 21.381C301.772 19.3611 301.772 16.0862 299.748 14.0663C297.725 12.0464 294.444 12.0464 292.421 14.0663C290.397 16.0862 290.397 19.3611 292.421 21.381C294.444 23.4009 297.725 23.4009 299.748 21.381Z" fill="#F7D02D"/>
<path d="M293.281 13.3442C295.509 13.3442 297.314 11.5417 297.314 9.31832C297.314 7.0949 295.509 5.29248 293.281 5.29248C291.054 5.29248 289.249 7.0949 289.249 9.31832C289.249 11.5417 291.054 13.3442 293.281 13.3442Z" fill="#F7D02D"/>
<path d="M249.234 32.1729C250.937 32.1729 252.318 30.7942 252.318 29.0935C252.318 27.3928 250.937 26.0142 249.234 26.0142C247.53 26.0142 246.149 27.3928 246.149 29.0935C246.149 30.7942 247.53 32.1729 249.234 32.1729Z" fill="#F7D02D"/>
<path d="M257.387 51.5689C257.387 52.1437 257.216 52.7056 256.896 53.1835C256.576 53.6614 256.122 54.0338 255.59 54.2538C255.058 54.4737 254.472 54.5313 253.908 54.4192C253.343 54.307 252.824 54.0303 252.417 53.6238C252.01 53.2174 251.733 52.6996 251.62 52.1359C251.508 51.5721 251.566 50.9878 251.786 50.4568C252.006 49.9258 252.38 49.4719 252.858 49.1526C253.337 48.8333 253.9 48.6628 254.476 48.6628C255.247 48.6646 255.987 48.9713 256.532 49.516C257.078 50.0606 257.385 50.7987 257.387 51.5689Z" fill="#F7D02D"/>
<path d="M200.632 69.5522C200.632 70.1428 200.456 70.7201 200.127 71.2112C199.799 71.7022 199.332 72.085 198.785 72.311C198.238 72.537 197.637 72.5961 197.057 72.4809C196.476 72.3657 195.943 72.0813 195.525 71.6637C195.107 71.2461 194.822 70.714 194.706 70.1348C194.591 69.5555 194.65 68.9551 194.877 68.4095C195.103 67.8639 195.486 67.3975 195.978 67.0694C196.47 66.7413 197.049 66.5662 197.64 66.5662C198.434 66.5662 199.194 66.8807 199.755 67.4407C200.316 68.0007 200.632 68.7603 200.632 69.5522Z" fill="#F7D02D"/>
<path d="M205.766 80.9292C205.766 81.0953 205.717 81.2577 205.624 81.3958C205.532 81.5339 205.4 81.6415 205.247 81.7051C205.093 81.7687 204.924 81.7853 204.761 81.7529C204.597 81.7205 204.448 81.6405 204.33 81.523C204.212 81.4056 204.132 81.2559 204.1 81.093C204.067 80.9301 204.084 80.7613 204.148 80.6078C204.211 80.4543 204.319 80.3232 204.457 80.2309C204.596 80.1386 204.758 80.0894 204.925 80.0894C205.148 80.0894 205.362 80.1778 205.52 80.3353C205.677 80.4928 205.766 80.7065 205.766 80.9292Z" fill="#F7D02D"/>
<path d="M105.365 12.523C105.365 13.3259 105.126 14.1107 104.679 14.7782C104.232 15.4457 103.597 15.966 102.854 16.2732C102.111 16.5805 101.294 16.6609 100.505 16.5042C99.7162 16.3476 98.9916 15.961 98.4229 15.3933C97.8542 14.8256 97.467 14.1024 97.3101 13.3149C97.1532 12.5275 97.2337 11.7114 97.5415 10.9697C97.8492 10.2279 98.3704 9.59399 99.0391 9.14796C99.7078 8.70194 100.494 8.46387 101.298 8.46387C102.377 8.46387 103.411 8.89153 104.174 9.65277C104.936 10.414 105.365 11.4465 105.365 12.523Z" fill="#F7D02D"/>
<path d="M175.172 97.7126C175.166 98.237 175.004 98.7478 174.708 99.1811C174.412 99.6144 173.995 99.951 173.508 100.149C173.022 100.346 172.488 100.396 171.973 100.292C171.458 100.188 170.985 99.9351 170.613 99.5643C170.242 99.1934 169.988 98.7215 169.884 98.2074C169.78 97.6934 169.83 97.1601 170.028 96.6743C170.226 96.1885 170.563 95.7718 170.997 95.4763C171.431 95.1809 171.943 95.0197 172.468 95.0132C172.825 95.0087 173.178 95.0754 173.508 95.2095C173.839 95.3436 174.138 95.5423 174.39 95.7938C174.642 96.0454 174.841 96.3448 174.976 96.6743C175.11 97.0038 175.177 97.3569 175.172 97.7126Z" fill="#F7D02D"/>
<path d="M92.5965 30.9056C92.5965 31.4329 92.4398 31.9484 92.1464 32.3868C91.8529 32.8253 91.4358 33.167 90.9477 33.3688C90.4597 33.5706 89.9227 33.6234 89.4046 33.5205C88.8865 33.4176 88.4106 33.1637 88.0371 32.7908C87.6636 32.418 87.4093 31.9429 87.3062 31.4257C87.2031 30.9086 87.256 30.3725 87.4582 29.8853C87.6603 29.3982 88.0027 28.9818 88.4419 28.6888C88.8811 28.3959 89.3974 28.2395 89.9257 28.2395C90.634 28.2395 91.3133 28.5204 91.8142 29.0204C92.3151 29.5204 92.5965 30.1985 92.5965 30.9056Z" fill="#F7D02D"/>
<path d="M50.699 9.72448C50.699 10.5234 50.4617 11.3043 50.0171 11.9685C49.5725 12.6328 48.9405 13.1505 48.2012 13.4562C47.4618 13.7619 46.6482 13.8419 45.8633 13.6861C45.0784 13.5302 44.3575 13.1455 43.7916 12.5806C43.2257 12.0157 42.8403 11.296 42.6842 10.5125C42.5281 9.72897 42.6082 8.91682 42.9145 8.17876C43.2207 7.44069 43.7393 6.80985 44.4047 6.36602C45.0701 5.92219 45.8524 5.6853 46.6527 5.6853C47.7258 5.6853 48.755 6.11086 49.5139 6.86835C50.2727 7.62585 50.699 8.65323 50.699 9.72448Z" fill="#F7D02D"/>
<path d="M102.092 23.7741C102.092 24.1195 101.99 24.4572 101.798 24.7443C101.605 25.0315 101.332 25.2553 101.013 25.3875C100.693 25.5197 100.341 25.5543 100.002 25.4869C99.6625 25.4195 99.3508 25.2532 99.1061 25.009C98.8615 24.7648 98.6949 24.4536 98.6274 24.1148C98.5599 23.7761 98.5945 23.425 98.7269 23.1059C98.8593 22.7868 99.0835 22.514 99.3712 22.3221C99.6589 22.1302 99.9971 22.0278 100.343 22.0278C100.807 22.0278 101.252 22.2118 101.58 22.5393C101.908 22.8668 102.092 23.311 102.092 23.7741Z" fill="#F7D02D"/>
<path d="M109.944 40.7712C109.945 41.4981 109.73 42.2091 109.326 42.814C108.923 43.419 108.348 43.8908 107.675 44.1696C107.003 44.4484 106.263 44.5217 105.548 44.3802C104.834 44.2387 104.178 43.8888 103.663 43.3747C103.148 42.8607 102.798 42.2057 102.656 41.4927C102.514 40.7796 102.587 40.0406 102.867 39.3693C103.146 38.6979 103.619 38.1244 104.225 37.7214C104.831 37.3184 105.543 37.1039 106.271 37.1052C107.245 37.107 108.178 37.4938 108.866 38.1809C109.554 38.868 109.942 39.7994 109.944 40.7712Z" fill="#F7D02D"/>
<path d="M110.345 39.5914C111.993 39.5914 113.33 38.2574 113.33 36.612C113.33 34.9665 111.993 33.6326 110.345 33.6326C108.697 33.6326 107.36 34.9665 107.36 36.612C107.36 38.2574 108.697 39.5914 110.345 39.5914Z" fill="#F7D02D"/>
<path d="M8.80053 1.23957C8.80185 1.98233 8.58233 2.70876 8.16978 3.32689C7.75723 3.94502 7.1702 4.42703 6.48304 4.71188C5.79587 4.99673 5.03947 5.0716 4.30965 4.92702C3.57982 4.78244 2.90939 4.42491 2.38326 3.8997C1.85714 3.37449 1.49897 2.70524 1.35413 1.97669C1.2093 1.24814 1.28431 0.493069 1.56966 -0.192896C1.85501 -0.878861 2.33786 -1.46487 2.95707 -1.8767C3.57628 -2.28853 4.304 -2.50766 5.04806 -2.50634C6.04273 -2.50458 6.99617 -2.10935 7.69951 -1.40724C8.40285 -0.705127 8.79876 0.246639 8.80053 1.23957Z" fill="#F7D02D"/>
<path d="M93.2245 14.6957C93.2245 15.6357 92.9453 16.5545 92.4222 17.336C91.8991 18.1175 91.1556 18.7267 90.2857 19.0863C89.4158 19.446 88.4585 19.5401 87.5351 19.3568C86.6116 19.1734 85.7633 18.7208 85.0975 18.0562C84.4317 17.3915 83.9783 16.5447 83.7946 15.6229C83.6109 14.701 83.7052 13.7455 84.0655 12.8771C84.4258 12.0087 85.036 11.2665 85.8189 10.7443C86.6018 10.2221 87.5222 9.94336 88.4638 9.94336C89.7264 9.94336 90.9374 10.4441 91.8302 11.3353C92.723 12.2265 93.2245 13.4353 93.2245 14.6957Z" fill="#F7D02D"/>
<path d="M70.5367 15.0632C70.5367 15.2939 70.4681 15.5194 70.3397 15.7112C70.2113 15.903 70.0289 16.0525 69.8153 16.1408C69.6018 16.2291 69.3669 16.2522 69.1402 16.2072C68.9136 16.1622 68.7054 16.0511 68.5419 15.888C68.3785 15.7248 68.2672 15.517 68.2222 15.2907C68.1771 15.0645 68.2002 14.8299 68.2887 14.6168C68.3771 14.4037 68.5269 14.2215 68.719 14.0933C68.9112 13.9651 69.1371 13.8967 69.3682 13.8967C69.6781 13.8967 69.9753 14.0196 70.1944 14.2384C70.4136 14.4571 70.5367 14.7538 70.5367 15.0632Z" fill="#F7D02D"/>
<path d="M56.9958 8.53782C56.9958 9.29479 56.7708 10.0347 56.3494 10.6641C55.928 11.2934 55.329 11.7837 54.6283 12.0731C53.9276 12.3625 53.1566 12.4379 52.413 12.2897C51.6694 12.1415 50.9865 11.7765 50.4507 11.2408C49.915 10.705 49.5505 10.0227 49.4034 9.28012C49.2563 8.53753 49.3331 7.76806 49.6242 7.06909C49.9153 6.37012 50.4076 5.77305 51.0388 5.35346C51.6699 4.93387 52.4116 4.7106 53.1699 4.71192C54.1852 4.71369 55.1583 5.11755 55.8756 5.83485C56.5929 6.55215 56.9958 7.52428 56.9958 8.53782Z" fill="#F7D02D"/>
<path d="M388.295 114.963C388.295 115.754 388.06 116.527 387.619 117.185C387.179 117.843 386.554 118.355 385.822 118.658C385.09 118.961 384.284 119.04 383.507 118.885C382.73 118.731 382.016 118.35 381.456 117.791C380.895 117.232 380.514 116.519 380.359 115.743C380.205 114.967 380.284 114.163 380.587 113.433C380.89 112.702 381.404 112.077 382.063 111.638C382.722 111.198 383.496 110.964 384.288 110.964C385.351 110.964 386.37 111.385 387.121 112.135C387.873 112.885 388.295 113.902 388.295 114.963Z" fill="#484948"/>
<path d="M330.799 130.807C330.799 130.999 330.742 131.186 330.635 131.345C330.528 131.504 330.377 131.628 330.199 131.701C330.022 131.774 329.827 131.793 329.639 131.755C329.451 131.717 329.279 131.624 329.144 131.488C329.008 131.352 328.917 131.18 328.88 130.992C328.844 130.804 328.864 130.609 328.938 130.433C329.012 130.256 329.137 130.106 329.297 130C329.458 129.895 329.645 129.84 329.837 129.841C329.964 129.841 330.09 129.866 330.207 129.915C330.324 129.963 330.43 130.034 330.519 130.124C330.609 130.214 330.679 130.321 330.727 130.438C330.775 130.555 330.8 130.681 330.799 130.807Z" fill="#484948"/>
<path d="M286.317 105.018C287.892 105.018 289.168 103.744 289.168 102.172C289.168 100.6 287.892 99.3259 286.317 99.3259C284.742 99.3259 283.466 100.6 283.466 102.172C283.466 103.744 284.742 105.018 286.317 105.018Z" fill="#484948"/>
<path d="M232.648 159.346C232.649 160.027 232.448 160.692 232.071 161.259C231.693 161.825 231.155 162.267 230.526 162.528C229.896 162.79 229.203 162.859 228.535 162.727C227.866 162.595 227.251 162.268 226.769 161.787C226.286 161.306 225.957 160.694 225.824 160.026C225.691 159.359 225.758 158.667 226.019 158.038C226.28 157.409 226.721 156.872 227.288 156.494C227.855 156.115 228.521 155.914 229.203 155.914C230.115 155.914 230.991 156.275 231.637 156.919C232.282 157.562 232.646 158.435 232.648 159.346Z" fill="#484948"/>
<path d="M148.731 157.001C148.732 157.567 148.565 158.121 148.251 158.592C147.937 159.063 147.489 159.431 146.966 159.648C146.442 159.865 145.865 159.923 145.309 159.812C144.753 159.702 144.242 159.43 143.841 159.03C143.44 158.629 143.167 158.119 143.057 157.564C142.946 157.009 143.004 156.433 143.221 155.91C143.439 155.388 143.807 154.941 144.279 154.627C144.751 154.314 145.306 154.147 145.873 154.148C146.631 154.148 147.358 154.449 147.894 154.984C148.43 155.519 148.731 156.244 148.731 157.001Z" fill="#484948"/>
<path d="M58.7318 106.572C60.4576 106.572 61.8566 105.176 61.8566 103.453C61.8566 101.73 60.4576 100.333 58.7318 100.333C57.006 100.333 55.6069 101.73 55.6069 103.453C55.6069 105.176 57.006 106.572 58.7318 106.572Z" fill="#484948"/>
<path d="M49.5766 107.551C49.5753 107.8 49.5002 108.043 49.3607 108.249C49.2212 108.455 49.0237 108.616 48.793 108.71C48.5623 108.804 48.3088 108.828 48.0644 108.779C47.8201 108.73 47.5958 108.609 47.42 108.433C47.2442 108.256 47.1247 108.032 47.0765 107.787C47.0283 107.543 47.0537 107.29 47.1494 107.061C47.2451 106.831 47.4069 106.634 47.6143 106.496C47.8216 106.358 48.0654 106.284 48.3147 106.284C48.481 106.284 48.6456 106.317 48.7991 106.381C48.9527 106.445 49.0921 106.538 49.2094 106.656C49.3267 106.773 49.4195 106.913 49.4825 107.067C49.5455 107.22 49.5775 107.385 49.5766 107.551Z" fill="#484948"/>
<path d="M44.5158 74.7106C44.514 74.8614 44.4528 75.0056 44.3453 75.1116C44.2378 75.2177 44.0927 75.2771 43.9416 75.2771C43.791 75.2771 43.6467 75.2174 43.5402 75.1112C43.4338 75.0049 43.374 74.8608 43.374 74.7106C43.374 74.5603 43.4338 74.4162 43.5402 74.31C43.6467 74.2037 43.791 74.144 43.9416 74.144C44.0927 74.144 44.2378 74.2035 44.3453 74.3096C44.4528 74.4156 44.514 74.5597 44.5158 74.7106Z" fill="#484948"/>
<path d="M64.32 137.839C64.3214 138.188 64.2186 138.531 64.0246 138.822C63.8307 139.114 63.5544 139.341 63.2308 139.476C62.9073 139.61 62.5509 139.646 62.2071 139.578C61.8632 139.51 61.5473 139.342 61.2995 139.094C61.0516 138.847 60.883 138.531 60.8149 138.188C60.7469 137.845 60.7825 137.489 60.9172 137.166C61.052 136.843 61.2798 136.567 61.5718 136.374C61.8638 136.18 62.2068 136.078 62.5573 136.079C63.0248 136.079 63.4732 136.264 63.8038 136.594C64.1343 136.924 64.32 137.372 64.32 137.839Z" fill="#484948"/>
<path d="M116.073 63.8266C116.073 64.5648 115.854 65.2865 115.443 65.9003C115.032 66.5141 114.448 66.9925 113.765 67.275C113.082 67.5575 112.33 67.6315 111.604 67.4874C110.879 67.3434 110.213 66.9879 109.69 66.4659C109.167 65.9439 108.811 65.2788 108.667 64.5548C108.522 63.8307 108.596 63.0802 108.879 62.3982C109.162 61.7161 109.642 61.1332 110.257 60.7231C110.871 60.3129 111.594 60.094 112.334 60.094C112.825 60.094 113.311 60.1905 113.765 60.3781C114.218 60.5657 114.631 60.8406 114.978 61.1872C115.325 61.5338 115.6 61.9453 115.788 62.3982C115.976 62.851 116.073 63.3364 116.073 63.8266Z" fill="#484948"/>
<path d="M170.431 145.091C170.431 145.77 170.229 146.433 169.851 146.998C169.473 147.562 168.936 148.002 168.308 148.262C167.679 148.522 166.988 148.59 166.321 148.457C165.654 148.325 165.041 147.998 164.56 147.518C164.079 147.038 163.752 146.426 163.619 145.76C163.487 145.094 163.555 144.404 163.815 143.777C164.075 143.15 164.516 142.614 165.081 142.236C165.647 141.859 166.312 141.658 166.992 141.658C167.903 141.66 168.777 142.022 169.421 142.665C170.066 143.309 170.429 144.181 170.431 145.091Z" fill="#484948"/>
<path d="M157.331 44.0041C157.331 44.4853 157.188 44.9557 156.92 45.3557C156.652 45.7558 156.272 46.0677 155.826 46.2518C155.381 46.4359 154.891 46.4841 154.418 46.3902C153.945 46.2964 153.511 46.0646 153.17 45.7244C152.83 45.3842 152.597 44.9507 152.503 44.4788C152.409 44.0068 152.458 43.5177 152.642 43.0731C152.827 42.6286 153.139 42.2486 153.54 41.9813C153.94 41.714 154.412 41.5713 154.894 41.5713C155.214 41.5704 155.531 41.6327 155.827 41.7547C156.123 41.8766 156.392 42.0558 156.619 42.2819C156.845 42.508 157.025 42.7765 157.147 43.0721C157.269 43.3676 157.332 43.6844 157.331 44.0041Z" fill="#484948"/>
<path d="M192.792 136.991C192.792 137.735 192.571 138.461 192.157 139.08C191.743 139.698 191.155 140.18 190.467 140.464C189.779 140.749 189.022 140.823 188.291 140.678C187.561 140.533 186.89 140.175 186.363 139.649C185.837 139.124 185.478 138.454 185.333 137.725C185.187 136.995 185.262 136.239 185.547 135.553C185.832 134.866 186.315 134.279 186.934 133.865C187.553 133.452 188.281 133.232 189.026 133.232C189.521 133.231 190.011 133.328 190.468 133.516C190.926 133.705 191.341 133.982 191.691 134.331C192.041 134.68 192.318 135.095 192.507 135.552C192.696 136.008 192.793 136.497 192.792 136.991Z" fill="#484948"/>
<path d="M189.301 20.2355C189.301 21.0265 189.066 21.7997 188.625 22.4573C188.185 23.115 187.559 23.6276 186.827 23.9303C186.095 24.233 185.29 24.3122 184.513 24.1579C183.736 24.0036 183.022 23.6227 182.461 23.0634C181.901 22.5041 181.52 21.7915 181.365 21.0157C181.21 20.2399 181.29 19.4358 181.593 18.7051C181.896 17.9743 182.41 17.3497 183.069 16.9103C183.727 16.4709 184.502 16.2363 185.294 16.2363C186.357 16.2363 187.376 16.6577 188.127 17.4077C188.878 18.1577 189.301 19.1749 189.301 20.2355Z" fill="#484948"/>
<path d="M264.671 145.443C264.672 146.133 264.468 146.807 264.085 147.381C263.702 147.956 263.158 148.403 262.52 148.668C261.882 148.933 261.179 149.003 260.501 148.869C259.824 148.736 259.201 148.404 258.712 147.917C258.223 147.43 257.889 146.809 257.754 146.132C257.619 145.456 257.688 144.754 257.952 144.117C258.216 143.48 258.663 142.935 259.238 142.552C259.812 142.168 260.488 141.964 261.179 141.964C262.104 141.964 262.991 142.33 263.645 142.982C264.3 143.635 264.669 144.52 264.671 145.443Z" fill="#484948"/>
<path d="M275.039 112.017C275.574 112.017 276.007 111.584 276.007 111.05C276.007 110.517 275.574 110.084 275.039 110.084C274.504 110.084 274.071 110.517 274.071 111.05C274.071 111.584 274.504 112.017 275.039 112.017Z" fill="#484948"/>
<path d="M303.664 91.2082C303.665 91.9006 303.461 92.5778 303.076 93.1541C302.692 93.7304 302.145 94.18 301.504 94.4459C300.864 94.7118 300.159 94.782 299.478 94.6477C298.798 94.5135 298.173 94.1807 297.682 93.6916C297.191 93.2025 296.856 92.579 296.721 91.9C296.585 91.221 296.654 90.5171 296.919 89.8773C297.184 89.2375 297.633 88.6906 298.21 88.3058C298.787 87.921 299.465 87.7156 300.158 87.7156C301.087 87.7156 301.977 88.0833 302.635 88.7381C303.292 89.3929 303.662 90.2813 303.664 91.2082Z" fill="#484948"/>
<path d="M290.618 13.5502C290.618 14.0379 290.473 14.5147 290.201 14.9203C289.93 15.3258 289.544 15.6419 289.093 15.8286C288.641 16.0153 288.145 16.0641 287.665 15.9689C287.186 15.8738 286.746 15.6389 286.4 15.294C286.055 14.9491 285.82 14.5097 285.724 14.0313C285.629 13.5529 285.678 13.057 285.865 12.6064C286.052 12.1558 286.368 11.7706 286.775 11.4996C287.181 11.2286 287.659 11.084 288.147 11.084C288.802 11.084 289.431 11.3438 289.894 11.8063C290.357 12.2688 290.618 12.8961 290.618 13.5502Z" fill="#484948"/>
<path d="M190.622 59.0812C190.623 59.667 190.45 60.2401 190.125 60.7278C189.8 61.2155 189.337 61.5959 188.795 61.8207C188.253 62.0455 187.656 62.1047 187.081 61.9907C186.505 61.8767 185.976 61.5947 185.561 61.1804C185.146 60.7661 184.864 60.2382 184.75 59.6635C184.635 59.0889 184.695 58.4932 184.92 57.9522C185.145 57.4112 185.526 56.9491 186.015 56.6244C186.503 56.2997 187.077 56.1271 187.664 56.1284C188.449 56.1284 189.201 56.4395 189.756 56.9933C190.31 57.547 190.622 58.298 190.622 59.0812Z" fill="#484948"/>
<path d="M175.953 48.2433C175.953 48.9633 175.739 49.6672 175.338 50.2658C174.937 50.8644 174.367 51.3309 173.701 51.6062C173.034 51.8814 172.301 51.9531 171.594 51.8121C170.886 51.6711 170.237 51.3239 169.727 50.8143C169.217 50.3046 168.871 49.6555 168.731 48.9492C168.591 48.2428 168.664 47.5108 168.941 46.846C169.218 46.1811 169.686 45.6132 170.287 45.2141C170.887 44.815 171.593 44.6027 172.314 44.604C172.792 44.604 173.266 44.6982 173.708 44.8812C174.15 45.0641 174.551 45.3323 174.889 45.6703C175.227 46.0083 175.495 46.4096 175.678 46.8511C175.86 47.2926 175.954 47.7657 175.953 48.2433Z" fill="#484948"/>
</g>
<mask id="mask1_8630_33701" style="mask-type:alpha" maskUnits="userSpaceOnUse" x="0" y="0" width="400" height="300">
<rect width="400" height="300" fill="#EBF9F0"/>
</mask>
<g mask="url(#mask1_8630_33701)">
<path d="M651.255 480.135C646.182 478.215 634.117 484.806 625.031 496.269C615.258 508.562 611.303 521.63 615.602 525.04L477.948 451.85C471.184 448.268 463.389 454.4 465.309 461.794L506.981 619.638C365.83 711.226 320.576 683.772 320.576 683.772V165.078C320.576 165.107 320.576 165.107 320.605 165.135C321.809 168.202 334.734 166.052 349.494 160.292C363.079 155.019 373.454 148.543 374.113 145.161L374.142 145.133V308.564C374.142 318.824 379.673 328.252 388.615 333.267L651.255 480.135Z" fill="#FE5244"/>
<path d="M651.255 480.135C646.182 478.215 634.117 484.806 625.031 496.269C615.258 508.562 611.303 521.63 615.602 525.04L477.948 451.85C471.184 448.268 463.389 454.4 465.309 461.794L506.981 620.268C471.099 643.566 441.407 658.525 417.074 668.842C378.957 684.976 354.022 688.157 339.062 687.584C326.022 687.096 320.576 683.772 320.576 683.772V165.078C320.576 165.107 320.576 165.107 320.605 165.135C321.809 168.202 334.734 166.052 349.494 160.292C363.079 155.019 373.454 148.543 374.113 145.161L374.142 145.133V308.564C374.142 318.824 379.673 328.252 388.615 333.267L651.255 480.135Z" fill="#FE5244"/>
<path d="M391.711 131.893L272.17 156.395C267.756 157.312 263.199 153.386 262.024 147.626C260.849 141.866 263.486 136.478 267.9 135.561L387.44 111.059L391.711 131.893Z" fill="white" stroke="#3FB1B5" stroke-width="1.72142" stroke-miterlimit="10" stroke-linecap="round"/>
<path d="M391.668 131.91C396.087 131.004 398.714 125.607 397.535 119.855C396.355 114.103 391.817 110.174 387.398 111.08C382.979 111.986 380.352 117.383 381.532 123.135C382.711 128.887 387.249 132.816 391.668 131.91Z" fill="white" stroke="#3FB1B5" stroke-width="1.72142" stroke-miterlimit="10" stroke-linecap="round"/>
<path d="M323.5 142.324C323.5 142.324 284.838 185.769 289.051 195.34C294.554 200.814 299.025 203.221 298.366 205.255C297.649 207.462 288.392 220.788 288.392 220.788L287.475 210.901L278.619 213.824C278.619 213.824 287.962 200.183 288.564 195.999C284.723 193.076 276.899 187.001 277.157 182.76C277.444 178.26 291.143 162.27 301.088 151.237L286.099 156.194L283.147 142.353L310.116 137.395L323.5 142.324Z" fill="#FE5244"/>
<path d="M318.255 144.216C322.75 144.216 326.395 140.572 326.395 136.077C326.395 131.582 322.75 127.938 318.255 127.938C313.76 127.938 310.116 131.582 310.116 136.077C310.116 140.572 313.76 144.216 318.255 144.216Z" fill="white" stroke="#FE5244" stroke-width="1.72142" stroke-miterlimit="10"/>
<path d="M374.114 145.162C373.455 148.543 363.08 155.02 349.495 160.293C334.735 166.024 321.809 168.202 320.606 165.136C320.606 165.107 320.606 165.107 320.577 165.079C319.545 161.984 330.493 154.905 345.167 149.203C359.927 143.471 372.853 141.293 374.057 144.359C374.143 144.589 374.171 144.847 374.114 145.162Z" fill="#9A3B82"/>
<path d="M364.169 121.09L362.592 143.843L361.847 154.733C358.265 156.625 354.052 158.516 349.495 160.293C341.756 163.302 334.534 165.308 329.232 166.139V145.334L350.985 140.863C350.985 140.863 352.189 133.097 354.481 126.592C356.746 120.058 364.169 121.09 364.169 121.09Z" fill="#A0505A"/>
<path d="M351.587 139.917C351.272 141.207 341.814 144.216 341.814 151.094" stroke="#73325A" stroke-width="1.37714" stroke-miterlimit="10" stroke-linecap="round"/>
<path d="M362.592 143.844L361.847 154.733C358.265 156.625 354.052 158.516 349.495 160.293C341.756 163.302 334.534 165.308 329.232 166.139V156.739C333.474 154.246 339.005 151.61 345.167 149.202C351.587 146.681 357.663 144.847 362.592 143.844Z" fill="#73325A"/>
<path d="M348.349 132.467L324.074 138.026C322.784 138.313 321.581 137.281 321.581 135.848V121.119C321.581 119.141 322.784 117.422 324.533 116.849L348.521 109.025C350.04 108.538 351.559 109.742 351.559 111.432V128.225C351.53 130.26 350.212 132.037 348.349 132.467Z" fill="#A0505A"/>
<path d="M330.179 135.733C328.86 136.02 327.599 135.017 327.599 133.641V119.514C327.599 117.622 328.832 115.96 330.637 115.416" stroke="#73325A" stroke-width="1.37714" stroke-miterlimit="10" stroke-linecap="round"/>
<path d="M337.172 134.215C335.853 134.501 334.592 133.47 334.592 132.066V117.508C334.592 115.559 335.825 113.84 337.63 113.295" stroke="#73325A" stroke-width="1.37714" stroke-miterlimit="10" stroke-linecap="round"/>
<path d="M344.995 132.553C343.677 132.839 342.416 131.779 342.416 130.346V115.273C342.416 113.267 343.648 111.49 345.454 110.917" stroke="#73325A" stroke-width="1.37714" stroke-miterlimit="10" stroke-linecap="round"/>
<path d="M418.653 293.578C418.653 293.578 400.569 289.079 394.923 299.568C389.277 310.056 405.785 312.951 406.472 309.283C406.788 307.678 376.752 307.706 381.796 330.432C387.041 354.102 410.686 345.964 410.686 345.964L413.437 330.661L418.653 293.578Z" fill="white" stroke="#9A3B82" stroke-width="1.37714" stroke-miterlimit="10"/>
<path d="M438.514 318.682L440.549 319.972C442.527 321.233 443.1 323.841 441.867 325.818L441.466 326.42C440.205 328.397 437.597 328.999 435.619 327.738L433.441 326.363C431.034 328.082 416.561 337.739 407.619 328.139C398.935 318.826 418.997 291.573 418.997 291.573C436.021 296.903 442.67 312.034 442.67 312.034L438.514 318.682Z" fill="#A0505A"/>
<path d="M178.482 622.36C175.473 611.384 125.776 621.672 71.0357 641.589C18.6739 660.646 -23.8863 686.351 -24.3448 696.697L-53.0621 487.242C-53.492 484.29 -56.0141 482.112 -58.9947 482.112C-60.657 482.112 -62.1473 482.771 -63.2364 483.86C-64.3255 484.949 -64.9847 486.439 -64.9847 488.101V666.979C-65.3286 662.079 -77.9676 658.153 -93.5014 658.153C-109.035 658.153 -121.645 662.079 -122.018 666.979V465.978C-122.018 449.013 -113.133 433.309 -98.6315 424.54L-79.8019 413.163L-2.24792 366.337L69.8893 322.434V247.496C69.8893 250.705 83.1588 253.285 98.8072 253.285C114.427 253.285 127.725 250.734 127.725 247.496V328.739C127.725 346.736 118.927 363.729 104.883 374.963L61.0047 406.314C53.5244 411.644 51.7189 422.018 56.935 429.583C86.0249 471.681 175.415 594.534 178.453 621.558C178.482 621.815 178.482 622.102 178.482 622.36Z" fill="#3FB1B5"/>
<path d="M127.123 244.43C127.123 247.669 114.455 250.219 98.8353 250.219C83.2156 250.219 70.5479 247.669 70.5479 244.43C70.5479 241.192 83.2156 238.527 98.8353 238.527C114.455 238.527 127.123 241.221 127.123 244.43Z" stroke="#3FB1B5" stroke-width="1.72142" stroke-miterlimit="10" stroke-linecap="round"/>
<path d="M90.2084 249.159C86.7119 248.93 83.5307 248.586 80.7793 248.098V220.272C80.7793 219.355 80.9799 218.438 81.3811 217.607L90.3804 199.037C92.0427 195.599 95.5392 193.421 99.351 193.421H110.385L86.2533 237.811C86.1387 238.011 86.0527 238.212 85.9667 238.412C84.5624 241.88 86.3107 246.322 90.2084 249.159Z" fill="#E57281"/>
<path d="M110.959 237.897L114.512 231.707V248.5C111.589 248.872 108.293 249.188 104.768 249.331L110.959 237.897Z" fill="#9A3B82"/>
<path d="M162.947 140.721L104.194 248.815C102.015 252.827 96.0542 253.773 90.8381 250.936C85.622 248.099 83.1859 242.568 85.364 238.585L144.117 130.49L162.947 140.721Z" fill="white" stroke="#FE5244" stroke-width="1.72142" stroke-miterlimit="10"/>
<path d="M162.925 140.76C165.102 136.755 162.65 131.218 157.449 128.391C152.248 125.565 146.267 126.52 144.09 130.525C141.914 134.53 144.365 140.067 149.566 142.894C154.768 145.72 160.749 144.765 162.925 140.76Z" fill="white" stroke="#FE5244" stroke-width="1.72142" stroke-miterlimit="10"/>
<path d="M126.95 180.382L154.722 157.399L154.292 165.767L163.176 167.974L141.968 181.07C158.247 177.574 187.48 172.645 191.922 181.242C193.671 184.623 190.375 191.53 188.168 196.488C186.792 206.947 241.647 193.994 242.278 193.851L233.823 201.674L242.278 206.489C242.278 206.489 196.25 215.258 184.385 212.851C177.678 211.475 183.009 202.477 187.681 195.886C189.114 190.813 177.707 189.151 130.275 194.31L126.95 180.382Z" fill="#FE5244"/>
<path d="M127.352 194.195C131.879 194.195 135.548 190.525 135.548 185.999C135.548 181.472 131.879 177.803 127.352 177.803C122.825 177.803 119.155 181.472 119.155 185.999C119.155 190.525 122.825 194.195 127.352 194.195Z" fill="white" stroke="#FE5244" stroke-width="1.72142" stroke-miterlimit="10"/>
<path d="M133.772 213.452L131.135 219.642L128.04 226.864L126.378 230.79L123.827 236.779C123.77 236.951 123.684 237.094 123.598 237.266C123.598 237.266 123.598 237.295 123.569 237.295C122.738 238.699 121.162 239.587 119.442 239.587H99.2081C96.772 239.587 95.0811 237.266 95.9982 235.117L97.4598 231.678L100.698 224.084L103.478 217.55L105.915 211.79C106.631 210.099 108.379 209.01 110.3 209.01H130.534C133.027 208.982 134.689 211.303 133.772 213.452Z" fill="#E57281"/>
<path d="M104.195 217.521C105.026 216.575 106.258 216.031 107.577 216.031H126.894C128.928 216.031 130.39 217.779 130.189 219.642" stroke="#9A3B82" stroke-width="1.37714" stroke-miterlimit="10" stroke-linecap="round"/>
<path d="M101.558 224.084C102.389 223.253 103.536 222.765 104.768 222.765H124.085C126.292 222.765 127.839 224.829 127.266 226.863" stroke="#9A3B82" stroke-width="1.37714" stroke-miterlimit="10" stroke-linecap="round"/>
<path d="M98.52 231.649C99.3512 230.876 100.469 230.417 101.644 230.417H120.961C123.254 230.417 124.83 232.624 124.085 234.716" stroke="#9A3B82" stroke-width="1.37714" stroke-miterlimit="10" stroke-linecap="round"/>
<path d="M121.477 193.392V193.908C121.477 199.152 117.235 203.422 111.961 203.422H101.988V193.392H121.477Z" fill="#E57281"/>
</g>
</g>
<defs>
<clipPath id="clip0_8630_33701">
<rect width="400" height="300" rx="12" fill="white"/>
</clipPath>
</defs>
</svg>
